<svg width="120" height="33" viewBox="0 0 120 33" fill="none" xmlns="http://www.w3.org/2000/svg">
<rect x="0.5" y="0.5" width="119" height="32" rx="4.5" fill="white"/>
<path d="M17.03 15.33H17.758C18.066 15.33 18.3787 15.3067 18.696 15.26C19.0133 15.2133 19.3027 15.1293 19.564 15.008C19.8253 14.8773 20.04 14.7047 20.208 14.49C20.376 14.2753 20.46 14.0047 20.46 13.678C20.46 13.258 20.278 12.9173 19.914 12.656C19.5593 12.3853 19.0833 12.25 18.486 12.25C17.9727 12.25 17.5107 12.3107 17.1 12.432C16.6893 12.544 16.386 12.6607 16.19 12.782L15.756 11.676C15.868 11.6013 16.0173 11.5313 16.204 11.466C16.4 11.3913 16.6147 11.326 16.848 11.27C17.0907 11.214 17.352 11.172 17.632 11.144C17.912 11.1067 18.2013 11.088 18.5 11.088C18.9853 11.088 19.4333 11.1393 19.844 11.242C20.2547 11.3447 20.6093 11.5033 20.908 11.718C21.2067 11.9233 21.44 12.1893 21.608 12.516C21.776 12.8333 21.86 13.2113 21.86 13.65C21.86 14.098 21.7153 14.518 21.426 14.91C21.146 15.302 20.7307 15.5867 20.18 15.764C20.46 15.8387 20.726 15.946 20.978 16.086C21.2393 16.2167 21.4633 16.3893 21.65 16.604C21.846 16.8093 22 17.052 22.112 17.332C22.2333 17.612 22.294 17.9387 22.294 18.312C22.294 18.8253 22.196 19.2687 22 19.642C21.8133 20.006 21.5473 20.3047 21.202 20.538C20.866 20.7713 20.4553 20.9393 19.97 21.042C19.4847 21.154 18.948 21.21 18.36 21.21C18.0053 21.21 17.6693 21.182 17.352 21.126C17.0347 21.0793 16.75 21.0233 16.498 20.958C16.246 20.8833 16.0267 20.804 15.84 20.72C15.6533 20.636 15.5087 20.566 15.406 20.51L15.812 19.39C15.9147 19.446 16.05 19.5113 16.218 19.586C16.3953 19.6607 16.5913 19.7307 16.806 19.796C17.0207 19.8613 17.2587 19.9173 17.52 19.964C17.7813 20.0107 18.0567 20.034 18.346 20.034C19.1393 20.034 19.7553 19.9033 20.194 19.642C20.642 19.3713 20.866 18.9187 20.866 18.284C20.866 17.9107 20.7867 17.6073 20.628 17.374C20.4787 17.1313 20.2687 16.94 19.998 16.8C19.7367 16.66 19.424 16.5667 19.06 16.52C18.7053 16.464 18.318 16.436 17.898 16.436H17.03V15.33ZM26.5957 20.062C26.9037 20.062 27.1744 20.0573 27.4077 20.048C27.6504 20.0293 27.8511 20.0013 28.0097 19.964V17.794C27.9164 17.7473 27.7624 17.71 27.5477 17.682C27.3424 17.6447 27.0904 17.626 26.7917 17.626C26.5957 17.626 26.3857 17.64 26.1617 17.668C25.9471 17.696 25.7464 17.7567 25.5597 17.85C25.3824 17.934 25.2331 18.0553 25.1117 18.214C24.9904 18.3633 24.9297 18.564 24.9297 18.816C24.9297 19.2827 25.0791 19.6093 25.3777 19.796C25.6764 19.9733 26.0824 20.062 26.5957 20.062ZM26.4837 13.538C27.0064 13.538 27.4451 13.608 27.7997 13.748C28.1637 13.8787 28.4531 14.07 28.6677 14.322C28.8917 14.5647 29.0504 14.8587 29.1437 15.204C29.2371 15.54 29.2837 15.9133 29.2837 16.324V20.874C29.1717 20.8927 29.0131 20.9207 28.8077 20.958C28.6117 20.986 28.3877 21.014 28.1357 21.042C27.8837 21.07 27.6084 21.0933 27.3097 21.112C27.0204 21.14 26.7311 21.154 26.4417 21.154C26.0311 21.154 25.6531 21.112 25.3077 21.028C24.9624 20.944 24.6637 20.8133 24.4117 20.636C24.1597 20.4493 23.9637 20.2067 23.8237 19.908C23.6837 19.6093 23.6137 19.25 23.6137 18.83C23.6137 18.4287 23.6931 18.0833 23.8517 17.794C24.0197 17.5047 24.2437 17.2713 24.5237 17.094C24.8037 16.9167 25.1304 16.786 25.5037 16.702C25.8771 16.618 26.2691 16.576 26.6797 16.576C26.8104 16.576 26.9457 16.5853 27.0857 16.604C27.2257 16.6133 27.3564 16.632 27.4777 16.66C27.6084 16.6787 27.7204 16.6973 27.8137 16.716C27.9071 16.7347 27.9724 16.7487 28.0097 16.758V16.394C28.0097 16.1793 27.9864 15.9693 27.9397 15.764C27.8931 15.5493 27.8091 15.3627 27.6877 15.204C27.5664 15.036 27.3984 14.9053 27.1837 14.812C26.9784 14.7093 26.7077 14.658 26.3717 14.658C25.9424 14.658 25.5644 14.6907 25.2377 14.756C24.9204 14.812 24.6824 14.8727 24.5237 14.938L24.3697 13.86C24.5377 13.7853 24.8177 13.7153 25.2097 13.65C25.6017 13.5753 26.0264 13.538 26.4837 13.538ZM35.9542 14.812H32.7482V21H31.4462V13.72H35.9542V14.812ZM42.3517 17.374C42.3517 16.5247 42.1417 15.8713 41.7217 15.414C41.3017 14.9567 40.7417 14.728 40.0417 14.728C39.6497 14.728 39.3417 14.742 39.1177 14.77C38.9031 14.798 38.7304 14.8307 38.5997 14.868V19.46C38.7584 19.5907 38.9871 19.7167 39.2857 19.838C39.5844 19.9593 39.9111 20.02 40.2657 20.02C40.6391 20.02 40.9564 19.9547 41.2177 19.824C41.4884 19.684 41.7077 19.4973 41.8757 19.264C42.0437 19.0213 42.1651 18.7413 42.2397 18.424C42.3144 18.0973 42.3517 17.7473 42.3517 17.374ZM43.7097 17.374C43.7097 17.9247 43.6351 18.4333 43.4857 18.9C43.3457 19.3667 43.1357 19.768 42.8557 20.104C42.5757 20.44 42.2304 20.7013 41.8197 20.888C41.4184 21.0747 40.9564 21.168 40.4337 21.168C40.0137 21.168 39.6404 21.112 39.3137 21C38.9964 20.888 38.7584 20.7807 38.5997 20.678V23.59H37.2977V13.944C37.6057 13.8693 37.9884 13.79 38.4457 13.706C38.9124 13.6127 39.4491 13.566 40.0557 13.566C40.6157 13.566 41.1197 13.6547 41.5677 13.832C42.0157 14.0093 42.3984 14.2613 42.7157 14.588C43.0331 14.9147 43.2757 15.316 43.4437 15.792C43.6211 16.2587 43.7097 16.786 43.7097 17.374ZM44.4965 22.358C44.5991 22.4047 44.7298 22.4467 44.8885 22.484C45.0565 22.5307 45.2198 22.554 45.3785 22.554C45.8918 22.554 46.2931 22.4373 46.5825 22.204C46.8718 21.98 47.1331 21.6113 47.3665 21.098C46.7785 19.978 46.2278 18.7927 45.7145 17.542C45.2105 16.282 44.7905 15.008 44.4545 13.72H45.8545C45.9571 14.14 46.0785 14.5927 46.2185 15.078C46.3678 15.5633 46.5311 16.0627 46.7085 16.576C46.8858 17.0893 47.0771 17.6027 47.2825 18.116C47.4878 18.6293 47.7025 19.124 47.9265 19.6C48.2811 18.62 48.5891 17.6493 48.8505 16.688C49.1118 15.7267 49.3591 14.7373 49.5925 13.72H50.9365C50.6005 15.092 50.2271 16.4127 49.8165 17.682C49.4058 18.942 48.9625 20.1227 48.4865 21.224C48.2998 21.644 48.1038 22.0033 47.8985 22.302C47.7025 22.61 47.4831 22.862 47.2405 23.058C46.9978 23.254 46.7225 23.3987 46.4145 23.492C46.1158 23.5853 45.7751 23.632 45.3925 23.632C45.2898 23.632 45.1825 23.6227 45.0705 23.604C44.9585 23.5947 44.8465 23.576 44.7345 23.548C44.6318 23.5293 44.5338 23.506 44.4405 23.478C44.3565 23.45 44.2958 23.4267 44.2585 23.408L44.4965 22.358ZM54.1575 13.538C54.5775 13.538 54.9695 13.58 55.3335 13.664C55.6975 13.748 56.0101 13.874 56.2715 14.042C56.5328 14.21 56.7381 14.42 56.8875 14.672C57.0368 14.924 57.1115 15.218 57.1115 15.554C57.1115 15.7687 57.0741 15.9647 56.9995 16.142C56.9248 16.3193 56.8315 16.478 56.7195 16.618C56.6075 16.758 56.4815 16.8793 56.3415 16.982C56.2108 17.0753 56.0848 17.1407 55.9635 17.178C56.3928 17.3087 56.7288 17.542 56.9715 17.878C57.2235 18.2047 57.3495 18.62 57.3495 19.124C57.3495 19.8147 57.0695 20.328 56.5095 20.664C55.9495 21 55.1888 21.168 54.2275 21.168C53.6395 21.168 53.1308 21.1213 52.7015 21.028C52.2815 20.9347 51.9828 20.846 51.8055 20.762L52.0295 19.656C52.1788 19.712 52.4448 19.7913 52.8275 19.894C53.2195 19.9873 53.6861 20.034 54.2275 20.034C54.8155 20.034 55.2635 19.9453 55.5715 19.768C55.8795 19.5813 56.0335 19.306 56.0335 18.942C56.0335 18.6807 55.9728 18.4707 55.8515 18.312C55.7395 18.144 55.5948 18.018 55.4175 17.934C55.2401 17.85 55.0488 17.794 54.8435 17.766C54.6381 17.738 54.4468 17.724 54.2695 17.724H53.0515V16.688H54.2275C54.3955 16.688 54.5681 16.6787 54.7455 16.66C54.9321 16.632 55.1001 16.5807 55.2495 16.506C55.4081 16.4313 55.5388 16.3287 55.6415 16.198C55.7441 16.058 55.7955 15.876 55.7955 15.652C55.7955 15.4747 55.7488 15.3253 55.6555 15.204C55.5715 15.0733 55.4548 14.966 55.3055 14.882C55.1561 14.798 54.9788 14.7373 54.7735 14.7C54.5775 14.6533 54.3721 14.63 54.1575 14.63C53.9895 14.63 53.8075 14.644 53.6115 14.672C53.4155 14.7 53.2241 14.7373 53.0375 14.784C52.8508 14.8213 52.6828 14.8633 52.5335 14.91C52.3841 14.9567 52.2768 14.9987 52.2115 15.036L51.9735 13.916C52.0481 13.888 52.1648 13.8507 52.3235 13.804C52.4821 13.7573 52.6595 13.7153 52.8555 13.678C53.0608 13.6407 53.2755 13.608 53.4995 13.58C53.7235 13.552 53.9428 13.538 54.1575 13.538ZM65.2771 13.72V21H64.0171V15.456C63.7371 15.8107 63.4291 16.226 63.0931 16.702C62.7571 17.178 62.4211 17.6727 62.0851 18.186C61.7491 18.69 61.4271 19.1893 61.1191 19.684C60.8111 20.1787 60.5451 20.6173 60.3211 21H59.1591V13.72H60.4191V18.956C60.6617 18.5547 60.9371 18.116 61.2451 17.64C61.5531 17.1547 61.8704 16.6787 62.1971 16.212C62.5331 15.736 62.8644 15.2833 63.1911 14.854C63.5271 14.4153 63.8397 14.0373 64.1291 13.72H65.2771ZM72.6506 13.72V14.812H70.2846V21H68.9826V14.812H66.6166V13.72H72.6506ZM76.751 20.09C77.3017 20.09 77.7357 19.9827 78.053 19.768C78.3704 19.5533 78.529 19.208 78.529 18.732C78.529 18.4987 78.4824 18.298 78.389 18.13C78.2957 17.962 78.165 17.8267 77.997 17.724C77.8384 17.612 77.6517 17.5327 77.437 17.486C77.2224 17.43 76.9937 17.402 76.751 17.402C76.499 17.402 76.2377 17.4113 75.967 17.43C75.7057 17.4393 75.4817 17.4673 75.295 17.514V20.02C75.351 20.0293 75.435 20.0387 75.547 20.048C75.659 20.0573 75.7804 20.0667 75.911 20.076C76.051 20.076 76.191 20.0807 76.331 20.09C76.4804 20.09 76.6204 20.09 76.751 20.09ZM73.993 20.846V13.72H75.295V16.506C75.3697 16.4873 75.4677 16.4687 75.589 16.45C75.7197 16.4313 75.855 16.4127 75.995 16.394C76.1444 16.3753 76.2984 16.3613 76.457 16.352C76.6157 16.3427 76.765 16.338 76.905 16.338C77.3064 16.338 77.6844 16.3847 78.039 16.478C78.3937 16.562 78.7017 16.702 78.963 16.898C79.2337 17.0847 79.4484 17.332 79.607 17.64C79.7657 17.9387 79.845 18.298 79.845 18.718C79.845 19.1567 79.7704 19.53 79.621 19.838C79.4717 20.146 79.257 20.398 78.977 20.594C78.697 20.79 78.361 20.93 77.969 21.014C77.5864 21.1073 77.157 21.154 76.681 21.154C76.2144 21.154 75.757 21.126 75.309 21.07C74.861 21.0233 74.4224 20.9487 73.993 20.846Z" fill="black"/>
<path d="M103 19V21.6667C103 22.0203 102.86 22.3594 102.609 22.6095C102.359 22.8595 102.02 23 101.667 23H92.3333C91.9797 23 91.6406 22.8595 91.3905 22.6095C91.1405 22.3594 91 22.0203 91 21.6667V19" stroke="black" stroke-width="1.5" stroke-linecap="round" stroke-linejoin="round"/>
<path d="M93.667 15.6667L97.0003 19L100.334 15.6667" stroke="black" stroke-width="1.5" stroke-linecap="round" stroke-linejoin="round"/>
<path d="M97 19V11" stroke="black" stroke-width="1.5" stroke-linecap="round" stroke-linejoin="round"/>
<rect x="0.5" y="0.5" width="119" height="32" rx="4.5" stroke="#DEDCE4"/>
</svg>
